<?xml version="1.0" standalone="no"?>
<!DOCTYPE svg PUBLIC "-//W3C//DTD SVG 20010904//EN"
 "http://www.w3.org/TR/2001/REC-SVG-20010904/DTD/svg10.dtd">
<svg version="1.0" xmlns="http://www.w3.org/2000/svg"
 width="1121.000000pt" height="305.000000pt" viewBox="0 0 1121.000000 305.000000"
 preserveAspectRatio="xMidYMid meet">

<g transform="translate(0.000000,305.000000) scale(0.100000,-0.100000)"
fill="#000000" stroke="none">
<path d="M3260 2284 c-135 -29 -277 -118 -373 -234 -47 -56 -111 -185 -133
-265 -10 -37 -18 -118 -21 -210 -4 -129 -2 -162 16 -237 60 -252 237 -437 481
-504 46 -13 101 -18 190 -18 215 0 353 55 490 193 149 150 210 315 210 562 0
194 -46 347 -143 474 -133 175 -306 256 -541 254 -61 0 -140 -7 -176 -15z
m240 -235 c226 -36 352 -264 319 -581 -28 -271 -188 -423 -428 -405 -140 11
-247 87 -310 221 -39 83 -54 162 -54 281 1 290 149 476 393 494 8 0 44 -4 80
-10z"/>
<path d="M5002 2281 c-238 -59 -429 -252 -493 -498 -26 -104 -35 -267 -20
-373 43 -289 231 -506 501 -577 89 -23 282 -23 370 0 82 22 191 75 254 124 62
48 148 157 185 236 90 190 103 449 33 661 -70 212 -260 387 -467 431 -96 20
-272 18 -363 -4z m317 -248 c163 -55 259 -232 261 -480 1 -288 -139 -475 -368
-490 -191 -13 -331 84 -404 283 -30 83 -33 320 -4 404 60 174 162 275 306 300
56 10 151 2 209 -17z"/>
<path d="M6604 2280 c-148 -38 -264 -121 -313 -222 -46 -96 -47 -239 -1 -333
51 -106 148 -181 373 -288 76 -36 155 -80 176 -96 94 -75 94 -203 -1 -260
-112 -69 -366 -41 -511 56 -23 16 -48 32 -54 37 -10 6 -13 -24 -13 -137 l0
-145 49 -21 c90 -38 187 -54 341 -54 102 -1 164 4 211 16 241 60 361 208 346
428 -9 129 -65 223 -180 301 -34 23 -137 79 -229 125 -129 64 -174 92 -201
123 -86 101 -39 216 105 250 111 27 307 -2 405 -60 19 -11 36 -20 39 -20 2 0
4 60 4 134 l0 134 -47 16 c-130 41 -373 49 -499 16z"/>
<path d="M8100 2285 c-36 -8 -103 -34 -150 -56 -67 -33 -101 -59 -165 -123
-121 -123 -177 -234 -205 -409 -16 -95 -8 -299 14 -382 53 -196 204 -375 381
-448 98 -40 162 -51 290 -51 212 0 344 52 486 194 130 129 190 264 208 468 33
380 -142 689 -446 790 -65 21 -100 26 -213 28 -91 2 -156 -2 -200 -11z m239
-235 c85 -14 149 -48 203 -109 87 -97 122 -207 122 -386 0 -185 -40 -301 -133
-395 -70 -70 -139 -94 -266 -95 -88 0 -107 4 -157 27 -105 49 -191 165 -223
299 -19 83 -19 258 0 333 47 180 162 300 312 326 68 11 71 11 142 0z"/>
<path d="M9881 2289 c-139 -27 -250 -86 -346 -184 -38 -39 -87 -100 -108 -136
-131 -224 -140 -571 -20 -802 53 -104 183 -232 283 -280 115 -56 186 -71 330
-71 143 0 223 19 345 82 85 44 194 151 248 243 75 128 114 310 104 483 -8 127
-28 208 -79 316 -33 70 -56 101 -127 171 -98 98 -188 149 -306 174 -76 16
-253 18 -324 4z m297 -261 c107 -40 195 -161 227 -314 31 -147 12 -343 -45
-455 -57 -111 -170 -185 -298 -196 -253 -21 -424 156 -439 457 -16 334 166
557 437 533 36 -3 89 -14 118 -25z"/>
<path d="M465 2198 c12 -46 100 -370 196 -720 l173 -638 163 0 c122 0 165 3
168 12 25 77 267 992 273 1031 l8 52 7 -55 c5 -30 67 -277 139 -547 l132 -493
158 0 c118 0 160 3 163 12 2 7 89 330 193 718 l189 705 -140 3 c-77 1 -142 0
-145 -3 -7 -7 -217 -935 -233 -1032 -7 -40 -16 -73 -20 -73 -3 0 -9 21 -12 48
-3 26 -64 274 -135 552 l-129 505 -149 3 -150 2 -142 -512 c-78 -282 -148
-540 -156 -573 l-14 -60 -1 45 c-1 25 -33 180 -71 345 -39 165 -94 402 -123
527 l-52 228 -157 0 -156 0 23 -82z"/>
</g>
</svg>
